<mxfile host="app.diagrams.net" modified="2021-09-22T14:08:21.737Z" agent="5.0 (Macintosh; Intel Mac OS X 10_15_7) AppleWebKit/605.1.15 (KHTML, like Gecko) Version/14.1.2 Safari/605.1.15" etag="vK_Z6JVifUMkoqgvNmVJ" version="15.2.9" type="github">
  <diagram id="9F1nN8QTqnc8hQHrsPi4" name="Page-1">
    <mxGraphModel dx="786" dy="562" grid="1" gridSize="10" guides="1" tooltips="1" connect="1" arrows="1" fold="1" page="1" pageScale="1" pageWidth="850" pageHeight="1100" math="0" shadow="0">
      <root>
        <mxCell id="0" />
        <mxCell id="1" parent="0" />
        <mxCell id="YsN5xdGr19YFQGbQFrRb-1" value="&lt;span style=&quot;color: rgba(0 , 0 , 0 , 0) ; font-family: monospace ; font-size: 0px&quot;&gt;%3CmxGraphModel%3E%3Croot%3E%3CmxCell%20id%3D%220%22%2F%3E%3CmxCell%20id%3D%221%22%20parent%3D%220%22%2F%3E%3CmxCell%20id%3D%222%22%20value%3D%22%22%20style%3D%22rounded%3D1%3BwhiteSpace%3Dwrap%3Bhtml%3D1%3BfillColor%3D%23dae8fc%3BstrokeColor%3D%236c8ebf%3B%22%20vertex%3D%221%22%20parent%3D%221%22%3E%3CmxGeometry%20x%3D%22650%22%20y%3D%2290%22%20width%3D%2265%22%20height%3D%2220%22%20as%3D%22geometry%22%2F%3E%3C%2FmxCell%3E%3C%2Froot%3E%3C%2FmxGraphModel%3E&lt;/span&gt;" style="whiteSpace=wrap;html=1;aspect=fixed;" vertex="1" parent="1">
          <mxGeometry x="90" y="60" width="670" height="670" as="geometry" />
        </mxCell>
        <mxCell id="YsN5xdGr19YFQGbQFrRb-2" value="" style="rounded=1;whiteSpace=wrap;html=1;" vertex="1" parent="1">
          <mxGeometry x="120" y="80" width="620" height="40" as="geometry" />
        </mxCell>
        <mxCell id="YsN5xdGr19YFQGbQFrRb-4" value="" style="rounded=1;whiteSpace=wrap;html=1;" vertex="1" parent="1">
          <mxGeometry x="800" y="46" width="120" height="35" as="geometry" />
        </mxCell>
        <mxCell id="YsN5xdGr19YFQGbQFrRb-3" value="&lt;font style=&quot;font-size: 22px&quot;&gt;Nav bar&lt;/font&gt;" style="text;html=1;strokeColor=none;fillColor=none;align=center;verticalAlign=middle;whiteSpace=wrap;rounded=0;" vertex="1" parent="1">
          <mxGeometry x="785" y="48.75" width="150" height="31.25" as="geometry" />
        </mxCell>
        <mxCell id="YsN5xdGr19YFQGbQFrRb-5" value="" style="rounded=1;whiteSpace=wrap;html=1;fillColor=#ffe6cc;strokeColor=#d79b00;" vertex="1" parent="1">
          <mxGeometry x="120" y="160" width="620" height="130" as="geometry" />
        </mxCell>
        <mxCell id="YsN5xdGr19YFQGbQFrRb-6" value="" style="endArrow=classic;html=1;entryX=1;entryY=0.5;entryDx=0;entryDy=0;exitX=0;exitY=0.5;exitDx=0;exitDy=0;" edge="1" parent="1" source="YsN5xdGr19YFQGbQFrRb-3" target="YsN5xdGr19YFQGbQFrRb-2">
          <mxGeometry width="50" height="50" relative="1" as="geometry">
            <mxPoint x="800" y="100" as="sourcePoint" />
            <mxPoint x="490" y="400" as="targetPoint" />
          </mxGeometry>
        </mxCell>
        <mxCell id="YsN5xdGr19YFQGbQFrRb-7" value="" style="rounded=1;whiteSpace=wrap;html=1;fillColor=#ffe6cc;strokeColor=#d79b00;" vertex="1" parent="1">
          <mxGeometry x="800" y="200" width="135" height="50" as="geometry" />
        </mxCell>
        <mxCell id="YsN5xdGr19YFQGbQFrRb-8" value="&lt;span style=&quot;font-size: 23px&quot;&gt;Hero code&lt;/span&gt;" style="text;html=1;strokeColor=none;fillColor=none;align=center;verticalAlign=middle;whiteSpace=wrap;rounded=0;" vertex="1" parent="1">
          <mxGeometry x="793.5" y="208" width="150" height="31.25" as="geometry" />
        </mxCell>
        <mxCell id="YsN5xdGr19YFQGbQFrRb-12" value="" style="shape=flexArrow;endArrow=classic;html=1;" edge="1" parent="1" source="YsN5xdGr19YFQGbQFrRb-8" target="YsN5xdGr19YFQGbQFrRb-5">
          <mxGeometry width="50" height="50" relative="1" as="geometry">
            <mxPoint x="540" y="300" as="sourcePoint" />
            <mxPoint x="590" y="250" as="targetPoint" />
          </mxGeometry>
        </mxCell>
        <mxCell id="YsN5xdGr19YFQGbQFrRb-14" value="" style="rounded=1;whiteSpace=wrap;html=1;fillColor=#f8cecc;strokeColor=#b85450;" vertex="1" parent="1">
          <mxGeometry x="119" y="320" width="620" height="130" as="geometry" />
        </mxCell>
        <mxCell id="YsN5xdGr19YFQGbQFrRb-15" value="" style="rounded=1;whiteSpace=wrap;html=1;fillColor=#f8cecc;strokeColor=#b85450;" vertex="1" parent="1">
          <mxGeometry x="802.5" y="350" width="144" height="60" as="geometry" />
        </mxCell>
        <mxCell id="YsN5xdGr19YFQGbQFrRb-18" value="" style="shape=flexArrow;endArrow=classic;html=1;" edge="1" parent="1" source="YsN5xdGr19YFQGbQFrRb-19" target="YsN5xdGr19YFQGbQFrRb-14">
          <mxGeometry width="50" height="50" relative="1" as="geometry">
            <mxPoint x="790" y="370" as="sourcePoint" />
            <mxPoint x="740" y="380" as="targetPoint" />
          </mxGeometry>
        </mxCell>
        <mxCell id="YsN5xdGr19YFQGbQFrRb-19" value="&lt;font style=&quot;font-size: 18px&quot;&gt;Products cards code&amp;nbsp;&lt;/font&gt;" style="text;html=1;strokeColor=none;fillColor=none;align=center;verticalAlign=middle;whiteSpace=wrap;rounded=0;" vertex="1" parent="1">
          <mxGeometry x="800" y="361" width="150" height="31.25" as="geometry" />
        </mxCell>
        <mxCell id="YsN5xdGr19YFQGbQFrRb-21" value="&lt;font style=&quot;font-size: 20px&quot;&gt;&lt;b&gt;FRONTPAGE&lt;/b&gt;&lt;/font&gt;" style="text;html=1;strokeColor=none;fillColor=none;align=center;verticalAlign=middle;whiteSpace=wrap;rounded=0;" vertex="1" parent="1">
          <mxGeometry x="105" y="26" width="100" height="20" as="geometry" />
        </mxCell>
        <mxCell id="YsN5xdGr19YFQGbQFrRb-23" value="id(1)" style="rounded=1;whiteSpace=wrap;html=1;fillColor=#d5e8d4;strokeColor=#82b366;" vertex="1" parent="1">
          <mxGeometry x="150" y="345" width="90" height="80" as="geometry" />
        </mxCell>
        <mxCell id="YsN5xdGr19YFQGbQFrRb-27" value="id(2)" style="rounded=1;whiteSpace=wrap;html=1;fillColor=#d5e8d4;strokeColor=#82b366;" vertex="1" parent="1">
          <mxGeometry x="258" y="345" width="90" height="80" as="geometry" />
        </mxCell>
        <mxCell id="YsN5xdGr19YFQGbQFrRb-28" value="id(3)" style="rounded=1;whiteSpace=wrap;html=1;fillColor=#d5e8d4;strokeColor=#82b366;" vertex="1" parent="1">
          <mxGeometry x="364" y="345" width="90" height="80" as="geometry" />
        </mxCell>
        <mxCell id="YsN5xdGr19YFQGbQFrRb-29" value="id(4)" style="rounded=1;whiteSpace=wrap;html=1;fillColor=#d5e8d4;strokeColor=#82b366;" vertex="1" parent="1">
          <mxGeometry x="470" y="345" width="90" height="80" as="geometry" />
        </mxCell>
        <mxCell id="YsN5xdGr19YFQGbQFrRb-30" value="id(5)" style="rounded=1;whiteSpace=wrap;html=1;fillColor=#d5e8d4;strokeColor=#82b366;" vertex="1" parent="1">
          <mxGeometry x="580" y="345" width="90" height="80" as="geometry" />
        </mxCell>
        <mxCell id="YsN5xdGr19YFQGbQFrRb-31" value="" style="rounded=1;whiteSpace=wrap;html=1;fillColor=#e1d5e7;strokeColor=#9673a6;" vertex="1" parent="1">
          <mxGeometry x="205" y="90" width="135" height="20" as="geometry" />
        </mxCell>
        <mxCell id="YsN5xdGr19YFQGbQFrRb-32" value="" style="rounded=1;whiteSpace=wrap;html=1;fillColor=#d5e8d4;strokeColor=#82b366;" vertex="1" parent="1">
          <mxGeometry x="800" y="425" width="150" height="45" as="geometry" />
        </mxCell>
        <mxCell id="YsN5xdGr19YFQGbQFrRb-33" value="&lt;font style=&quot;font-size: 19px&quot;&gt;Code for small&lt;/font&gt;" style="text;html=1;strokeColor=none;fillColor=none;align=center;verticalAlign=middle;whiteSpace=wrap;rounded=0;" vertex="1" parent="1">
          <mxGeometry x="796.5" y="431.88" width="150" height="31.25" as="geometry" />
        </mxCell>
        <mxCell id="YsN5xdGr19YFQGbQFrRb-34" value="" style="rounded=1;whiteSpace=wrap;html=1;fillColor=#e1d5e7;strokeColor=#9673a6;" vertex="1" parent="1">
          <mxGeometry x="796.5" y="140" width="143.5" height="40" as="geometry" />
        </mxCell>
        <mxCell id="YsN5xdGr19YFQGbQFrRb-35" value="&lt;font style=&quot;font-size: 16px&quot;&gt;Search component&lt;/font&gt;" style="text;html=1;strokeColor=none;fillColor=none;align=center;verticalAlign=middle;whiteSpace=wrap;rounded=0;" vertex="1" parent="1">
          <mxGeometry x="793.5" y="144.38" width="150" height="31.25" as="geometry" />
        </mxCell>
        <mxCell id="YsN5xdGr19YFQGbQFrRb-36" value="" style="rounded=1;whiteSpace=wrap;html=1;fillColor=#dae8fc;strokeColor=#6c8ebf;" vertex="1" parent="1">
          <mxGeometry x="650" y="90" width="65" height="20" as="geometry" />
        </mxCell>
        <mxCell id="YsN5xdGr19YFQGbQFrRb-37" value="Card Comp" style="rounded=1;whiteSpace=wrap;html=1;fillColor=#dae8fc;strokeColor=#6c8ebf;" vertex="1" parent="1">
          <mxGeometry x="827.5" y="90" width="65" height="20" as="geometry" />
        </mxCell>
        <mxCell id="YsN5xdGr19YFQGbQFrRb-39" value="Layout&amp;nbsp;" style="ellipse;shape=cloud;whiteSpace=wrap;html=1;fillColor=#a20025;strokeColor=#6F0000;fontColor=#ffffff;" vertex="1" parent="1">
          <mxGeometry x="892.5" y="20" width="60" height="40" as="geometry" />
        </mxCell>
        <mxCell id="YsN5xdGr19YFQGbQFrRb-40" value="&lt;span style=&quot;color: rgba(0 , 0 , 0 , 0) ; font-family: monospace ; font-size: 0px&quot;&gt;%3CmxGraphModel%3E%3Croot%3E%3CmxCell%20id%3D%220%22%2F%3E%3CmxCell%20id%3D%221%22%20parent%3D%220%22%2F%3E%3CmxCell%20id%3D%222%22%20value%3D%22%22%20style%3D%22rounded%3D1%3BwhiteSpace%3Dwrap%3Bhtml%3D1%3BfillColor%3D%23dae8fc%3BstrokeColor%3D%236c8ebf%3B%22%20vertex%3D%221%22%20parent%3D%221%22%3E%3CmxGeometry%20x%3D%22650%22%20y%3D%2290%22%20width%3D%2265%22%20height%3D%2220%22%20as%3D%22geometry%22%2F%3E%3C%2FmxCell%3E%3C%2Froot%3E%3C%2FmxGraphModel%3E&lt;/span&gt;" style="whiteSpace=wrap;html=1;aspect=fixed;" vertex="1" parent="1">
          <mxGeometry x="970" y="70" width="670" height="670" as="geometry" />
        </mxCell>
        <mxCell id="YsN5xdGr19YFQGbQFrRb-41" value="&quot;Description&quot; &amp;nbsp; / &amp;nbsp;&quot;Platform&quot;" style="rounded=1;whiteSpace=wrap;html=1;fillColor=#1ba1e2;strokeColor=#006EAF;fontColor=#ffffff;" vertex="1" parent="1">
          <mxGeometry x="1050" y="460" width="500" height="120" as="geometry" />
        </mxCell>
        <mxCell id="YsN5xdGr19YFQGbQFrRb-42" value="Code for description" style="rounded=1;whiteSpace=wrap;html=1;fillColor=#1ba1e2;strokeColor=#006EAF;fontColor=#ffffff;" vertex="1" parent="1">
          <mxGeometry x="1610" y="482.5" width="140" height="75" as="geometry" />
        </mxCell>
        <mxCell id="YsN5xdGr19YFQGbQFrRb-43" value="" style="shape=flexArrow;endArrow=classic;html=1;entryX=1;entryY=0.5;entryDx=0;entryDy=0;" edge="1" parent="1" source="YsN5xdGr19YFQGbQFrRb-42" target="YsN5xdGr19YFQGbQFrRb-41">
          <mxGeometry width="50" height="50" relative="1" as="geometry">
            <mxPoint x="1420" y="470" as="sourcePoint" />
            <mxPoint x="1470" y="420" as="targetPoint" />
          </mxGeometry>
        </mxCell>
        <mxCell id="YsN5xdGr19YFQGbQFrRb-45" value="&quot;picture&quot;&amp;nbsp;" style="whiteSpace=wrap;html=1;aspect=fixed;fillColor=#60a917;strokeColor=#2D7600;fontColor=#ffffff;" vertex="1" parent="1">
          <mxGeometry x="1060" y="150" width="200" height="200" as="geometry" />
        </mxCell>
        <mxCell id="YsN5xdGr19YFQGbQFrRb-46" value="&#39;&quot;Title&quot;" style="rounded=1;whiteSpace=wrap;html=1;fillColor=#dae8fc;strokeColor=#6c8ebf;" vertex="1" parent="1">
          <mxGeometry x="1300" y="148" width="250" height="42" as="geometry" />
        </mxCell>
        <mxCell id="YsN5xdGr19YFQGbQFrRb-47" value="&quot;Price&quot;" style="rounded=1;whiteSpace=wrap;html=1;fillColor=#fff2cc;strokeColor=#d6b656;" vertex="1" parent="1">
          <mxGeometry x="1300" y="200" width="140" height="30" as="geometry" />
        </mxCell>
        <mxCell id="YsN5xdGr19YFQGbQFrRb-48" value="&quot;Category&quot;&lt;br&gt;&quot;Availability&quot;&lt;br&gt;" style="rounded=1;whiteSpace=wrap;html=1;fillColor=#d5e8d4;strokeColor=#82b366;" vertex="1" parent="1">
          <mxGeometry x="1300" y="250" width="250" height="42" as="geometry" />
        </mxCell>
        <mxCell id="YsN5xdGr19YFQGbQFrRb-50" value="&quot;Incement/Decrement" style="rounded=1;whiteSpace=wrap;html=1;fillColor=#d80073;strokeColor=#A50040;fontColor=#ffffff;" vertex="1" parent="1">
          <mxGeometry x="1300" y="308" width="130" height="42" as="geometry" />
        </mxCell>
        <mxCell id="YsN5xdGr19YFQGbQFrRb-52" value="Add to card BTN" style="rounded=1;whiteSpace=wrap;html=1;fillColor=#f8cecc;strokeColor=#b85450;" vertex="1" parent="1">
          <mxGeometry x="1360" y="368" width="130" height="42" as="geometry" />
        </mxCell>
        <mxCell id="YsN5xdGr19YFQGbQFrRb-53" value="&lt;font style=&quot;font-size: 20px&quot;&gt;&lt;b&gt;Product page (&lt;/b&gt;&lt;/font&gt;&lt;span style=&quot;font-size: 20px&quot;&gt;&lt;b&gt;array)&lt;/b&gt;&lt;/span&gt;" style="text;html=1;strokeColor=none;fillColor=none;align=center;verticalAlign=middle;whiteSpace=wrap;rounded=0;" vertex="1" parent="1">
          <mxGeometry x="1010" y="30" width="210" height="20" as="geometry" />
        </mxCell>
        <mxCell id="YsN5xdGr19YFQGbQFrRb-55" value="Admin Site" style="whiteSpace=wrap;html=1;aspect=fixed;" vertex="1" parent="1">
          <mxGeometry x="1720" y="320" width="80" height="80" as="geometry" />
        </mxCell>
        <mxCell id="YsN5xdGr19YFQGbQFrRb-56" value="Main Product Page" style="whiteSpace=wrap;html=1;aspect=fixed;" vertex="1" parent="1">
          <mxGeometry x="1970" y="200" width="80" height="80" as="geometry" />
        </mxCell>
        <mxCell id="YsN5xdGr19YFQGbQFrRb-57" value="Payment page" style="whiteSpace=wrap;html=1;aspect=fixed;" vertex="1" parent="1">
          <mxGeometry x="2120" y="280" width="80" height="80" as="geometry" />
        </mxCell>
        <mxCell id="YsN5xdGr19YFQGbQFrRb-58" value="Cart&amp;nbsp;" style="whiteSpace=wrap;html=1;aspect=fixed;" vertex="1" parent="1">
          <mxGeometry x="2120" y="160" width="80" height="80" as="geometry" />
        </mxCell>
        <mxCell id="YsN5xdGr19YFQGbQFrRb-69" value="" style="edgeStyle=orthogonalEdgeStyle;rounded=0;orthogonalLoop=1;jettySize=auto;html=1;" edge="1" parent="1" source="YsN5xdGr19YFQGbQFrRb-65" target="YsN5xdGr19YFQGbQFrRb-56">
          <mxGeometry relative="1" as="geometry" />
        </mxCell>
        <mxCell id="YsN5xdGr19YFQGbQFrRb-65" value="Landing page" style="whiteSpace=wrap;html=1;aspect=fixed;" vertex="1" parent="1">
          <mxGeometry x="1830" y="200" width="80" height="80" as="geometry" />
        </mxCell>
        <mxCell id="YsN5xdGr19YFQGbQFrRb-67" value="" style="endArrow=classic;html=1;entryX=0;entryY=0.5;entryDx=0;entryDy=0;" edge="1" parent="1" target="YsN5xdGr19YFQGbQFrRb-56">
          <mxGeometry width="50" height="50" relative="1" as="geometry">
            <mxPoint x="1916" y="240" as="sourcePoint" />
            <mxPoint x="1950" y="350" as="targetPoint" />
          </mxGeometry>
        </mxCell>
        <mxCell id="YsN5xdGr19YFQGbQFrRb-68" value="" style="endArrow=classic;html=1;entryX=0;entryY=0.5;entryDx=0;entryDy=0;exitX=1;exitY=0.5;exitDx=0;exitDy=0;" edge="1" parent="1" source="YsN5xdGr19YFQGbQFrRb-56" target="YsN5xdGr19YFQGbQFrRb-58">
          <mxGeometry width="50" height="50" relative="1" as="geometry">
            <mxPoint x="1900" y="360" as="sourcePoint" />
            <mxPoint x="1950" y="310" as="targetPoint" />
          </mxGeometry>
        </mxCell>
        <mxCell id="YsN5xdGr19YFQGbQFrRb-72" value="" style="endArrow=classic;html=1;exitX=1;exitY=0.75;exitDx=0;exitDy=0;entryX=0;entryY=0.5;entryDx=0;entryDy=0;" edge="1" parent="1" source="YsN5xdGr19YFQGbQFrRb-56" target="YsN5xdGr19YFQGbQFrRb-57">
          <mxGeometry width="50" height="50" relative="1" as="geometry">
            <mxPoint x="1900" y="360" as="sourcePoint" />
            <mxPoint x="2110" y="320" as="targetPoint" />
          </mxGeometry>
        </mxCell>
        <mxCell id="YsN5xdGr19YFQGbQFrRb-73" value="Customer Log in" style="whiteSpace=wrap;html=1;aspect=fixed;" vertex="1" parent="1">
          <mxGeometry x="1900" y="320" width="85" height="85" as="geometry" />
        </mxCell>
        <mxCell id="YsN5xdGr19YFQGbQFrRb-74" value="Register&amp;nbsp;" style="whiteSpace=wrap;html=1;aspect=fixed;" vertex="1" parent="1">
          <mxGeometry x="1850" y="440" width="80" height="80" as="geometry" />
        </mxCell>
        <mxCell id="YsN5xdGr19YFQGbQFrRb-75" value="" style="endArrow=classic;html=1;exitX=0.5;exitY=1;exitDx=0;exitDy=0;entryX=0.5;entryY=0;entryDx=0;entryDy=0;" edge="1" parent="1" source="YsN5xdGr19YFQGbQFrRb-65" target="YsN5xdGr19YFQGbQFrRb-73">
          <mxGeometry width="50" height="50" relative="1" as="geometry">
            <mxPoint x="1990" y="380" as="sourcePoint" />
            <mxPoint x="2040" y="330" as="targetPoint" />
          </mxGeometry>
        </mxCell>
        <mxCell id="YsN5xdGr19YFQGbQFrRb-76" value="" style="endArrow=classic;html=1;exitX=0.5;exitY=1;exitDx=0;exitDy=0;entryX=0.5;entryY=0;entryDx=0;entryDy=0;" edge="1" parent="1" source="YsN5xdGr19YFQGbQFrRb-56" target="YsN5xdGr19YFQGbQFrRb-73">
          <mxGeometry width="50" height="50" relative="1" as="geometry">
            <mxPoint x="1990" y="420" as="sourcePoint" />
            <mxPoint x="2040" y="370" as="targetPoint" />
          </mxGeometry>
        </mxCell>
        <mxCell id="YsN5xdGr19YFQGbQFrRb-77" value="Log in" style="whiteSpace=wrap;html=1;aspect=fixed;" vertex="1" parent="1">
          <mxGeometry x="1960" y="440" width="80" height="80" as="geometry" />
        </mxCell>
        <mxCell id="YsN5xdGr19YFQGbQFrRb-78" value="" style="endArrow=classic;html=1;exitX=0.5;exitY=1;exitDx=0;exitDy=0;entryX=0.5;entryY=0;entryDx=0;entryDy=0;" edge="1" parent="1" source="YsN5xdGr19YFQGbQFrRb-73" target="YsN5xdGr19YFQGbQFrRb-77">
          <mxGeometry width="50" height="50" relative="1" as="geometry">
            <mxPoint x="1990" y="490" as="sourcePoint" />
            <mxPoint x="2040" y="440" as="targetPoint" />
          </mxGeometry>
        </mxCell>
        <mxCell id="YsN5xdGr19YFQGbQFrRb-79" value="" style="endArrow=classic;html=1;entryX=0.5;entryY=0;entryDx=0;entryDy=0;exitX=0.5;exitY=1;exitDx=0;exitDy=0;" edge="1" parent="1" source="YsN5xdGr19YFQGbQFrRb-73" target="YsN5xdGr19YFQGbQFrRb-74">
          <mxGeometry width="50" height="50" relative="1" as="geometry">
            <mxPoint x="1950" y="410" as="sourcePoint" />
            <mxPoint x="2040" y="440" as="targetPoint" />
          </mxGeometry>
        </mxCell>
        <mxCell id="YsN5xdGr19YFQGbQFrRb-81" value="Admin" style="whiteSpace=wrap;html=1;aspect=fixed;" vertex="1" parent="1">
          <mxGeometry x="2080" y="440" width="80" height="80" as="geometry" />
        </mxCell>
      </root>
    </mxGraphModel>
  </diagram>
</mxfile>
